<svg width="199" height="36" viewBox="0 0 199 36" fill="none" xmlns="http://www.w3.org/2000/svg">
<path d="M57.915 8.09711C57.1065 9.21807 56.2985 10.3385 55.4899 11.4594C55.4175 11.5602 55.3383 11.6569 55.2734 11.7623C54.7801 12.5592 53.7504 12.4653 53.2726 11.7651C52.4928 10.6236 51.6382 9.53295 50.8142 8.42115C50.7596 8.34729 50.701 8.2763 50.5873 8.13203C50.5873 8.31752 50.5873 8.41657 50.5873 8.51561C50.5873 10.3568 50.5925 12.1974 50.585 14.0385C50.5816 14.9225 49.6932 15.4526 48.9236 15.0387C48.5475 14.8366 48.3419 14.5109 48.3413 14.0866C48.3367 10.8629 48.3367 7.63854 48.3413 4.41478C48.3419 3.92643 48.6813 3.50621 49.139 3.37568C49.6438 3.23141 50.1348 3.41976 50.43 3.8812C51.3454 5.31074 52.2573 6.74257 53.1715 8.17268C53.5506 8.76579 53.9319 9.35833 54.3339 9.98523C54.7301 9.35204 55.1086 8.75034 55.4841 8.14692C56.3611 6.73914 57.2362 5.33021 58.1126 3.92185C58.4187 3.4295 58.9166 3.22626 59.438 3.37969C59.9284 3.52396 60.2282 3.94532 60.2288 4.50924C60.2305 7.66659 60.2305 10.8234 60.2288 13.9807C60.2288 14.6694 59.7527 15.1698 59.1089 15.1715C58.4399 15.1732 57.9828 14.6866 57.9822 13.9653C57.9811 12.1149 57.9822 10.2646 57.9822 8.41371C57.9822 8.31295 57.9822 8.21161 57.9822 8.11085C57.9598 8.10627 57.938 8.10169 57.9156 8.09711H57.915Z" fill="#7F56D2"/>
<path d="M77.4062 14.3645C76.9336 14.7653 76.4167 15.0395 75.8235 15.1557C73.62 15.5874 71.5836 14.2351 71.1415 12.027C70.8618 10.6306 71.026 9.30415 71.9397 8.15399C72.785 7.08914 73.9324 6.62484 75.2728 6.58591C77.374 6.52522 79.1256 7.9061 79.5459 9.95738C79.5706 10.0787 79.597 10.2018 79.5988 10.3249C79.6212 11.8861 79.7923 13.4599 79.5121 15.004C79.1302 17.1102 77.2598 18.498 75.1108 18.3875C73.759 18.3182 72.6053 17.8339 71.7123 16.7931C71.273 16.2812 71.2856 15.691 71.7462 15.2994C72.2286 14.8895 72.9085 14.9519 73.3306 15.442C74.0479 16.2744 74.9558 16.516 75.9946 16.2366C76.8072 16.0185 77.3821 15.2307 77.405 14.3651L77.4062 14.3645ZM77.4527 10.9152C77.4527 10.8196 77.4579 10.724 77.4521 10.6289C77.3941 9.67513 76.7073 8.85359 75.8292 8.68699C74.7485 8.48204 73.817 8.91027 73.4213 9.87093C73.2674 10.2453 73.206 10.685 73.2129 11.0938C73.237 12.5142 74.4918 13.4502 75.8798 13.1239C76.8537 12.8949 77.4631 12.043 77.4527 10.9157V10.9152Z" fill="#7F56D2"/>
<path d="M140.208 14.3372C139.716 14.7689 139.197 15.0414 138.602 15.1541C136.37 15.5778 134.345 14.2267 133.913 12.0019C133.623 10.5071 133.835 9.10852 134.899 7.94004C135.721 7.03777 136.777 6.64217 137.988 6.58836C139.98 6.49962 141.759 7.76886 142.25 9.67529C142.344 10.0406 142.393 10.4264 142.399 10.8043C142.419 11.9006 142.411 12.9975 142.405 14.0939C142.392 16.6495 140.331 18.5531 137.778 18.3802C136.479 18.292 135.375 17.8071 134.511 16.8207C134.048 16.2929 134.053 15.7141 134.519 15.3064C135.003 14.8834 135.681 14.9446 136.12 15.4593C136.781 16.2333 137.631 16.4669 138.599 16.2883C139.484 16.1251 140.082 15.3894 140.207 14.3378L140.208 14.3372ZM140.238 10.9291C140.247 10.2392 140.046 9.6232 139.527 9.15317C138.438 8.16904 136.643 8.61158 136.138 9.98674C135.551 11.5852 136.508 13.4137 138.473 13.1561C139.514 13.0199 140.233 12.1233 140.238 10.9285V10.9291Z" fill="#7F56D2"/>
<path d="M131.221 8.65746C131.62 9.04275 132.046 9.35305 132.343 9.75781C133.242 10.983 133.085 12.728 132.017 13.8913C130.998 15.0019 129.693 15.3815 128.232 15.3088C127.228 15.259 126.261 15.0323 125.394 14.505C125.113 14.3344 124.869 14.0957 124.63 13.8649C124.276 13.522 124.23 13.0778 124.289 12.6169C124.34 12.2224 124.588 11.9843 124.955 11.8749C125.373 11.7507 125.708 11.9104 126.029 12.1824C126.368 12.4686 126.71 12.7846 127.107 12.9592C128.007 13.3543 128.946 13.419 129.846 12.9369C130.912 12.3656 131.039 10.9074 130.095 10.2776C129.757 10.0521 129.377 9.97708 128.977 9.97593C128.671 9.97479 128.364 9.9828 128.059 9.97307C127.43 9.95361 127.008 9.52137 127.021 8.92024C127.034 8.30823 127.456 7.90118 128.088 7.89489C128.355 7.89202 128.624 7.90748 128.891 7.88458C130.057 7.78554 130.357 6.6766 130 5.93979C129.907 5.74628 129.685 5.58026 129.482 5.4795C128.489 4.98543 127.089 5.28943 126.363 6.12814C126.257 6.25009 126.149 6.37432 126.025 6.47623C125.575 6.84205 125.069 6.83404 124.675 6.46649C124.269 6.08807 124.208 5.52358 124.549 5.07016C125.266 4.11751 126.2 3.49062 127.386 3.28166C128.621 3.06411 129.812 3.18548 130.889 3.87935C132.663 5.02321 132.837 7.20216 131.278 8.62254C131.249 8.6483 131.212 8.66318 131.221 8.65746H131.221Z" fill="#7F56D2"/>
<path d="M155.616 14.4715C155.616 15.4683 155.616 16.41 155.616 17.3524C155.616 17.7886 155.443 18.1338 155.059 18.3479C154.293 18.775 153.401 18.2506 153.392 17.3655C153.382 16.4501 153.389 15.5347 153.389 14.6192C153.389 13.3798 153.383 12.1397 153.391 10.9003C153.406 8.76139 154.815 7.05991 156.892 6.6603C159.499 6.15822 161.91 8.07324 161.99 10.7176C162.04 12.3447 161.49 13.717 160.088 14.6124C158.732 15.4786 157.311 15.4499 155.909 14.6542C155.828 14.6078 155.749 14.5551 155.616 14.4721V14.4715ZM159.829 10.748C159.788 9.94131 159.408 9.19305 158.517 8.80547C157.249 8.25472 155.83 9.05622 155.605 10.4194C155.412 11.589 155.917 12.6487 156.846 13.0231C158.341 13.6265 159.87 12.5307 159.829 10.7474V10.748Z" fill="#7F56D2"/>
<path d="M93.5507 14.4811C93.5507 15.4229 93.5535 16.3097 93.5484 17.1959C93.5472 17.3757 93.5449 17.5635 93.4944 17.733C93.3388 18.2614 92.8455 18.5482 92.2597 18.4761C91.7457 18.4125 91.3386 17.9734 91.3374 17.4347C91.3317 15.2025 91.3121 12.9697 91.3437 10.7375C91.3753 8.5191 93.1332 6.68422 95.4791 6.58404C97.6366 6.49129 99.5466 8.03762 99.8901 10.2337C100.198 12.1991 99.2216 14.1605 97.5229 14.8911C96.2469 15.4395 94.9881 15.3565 93.7913 14.6208C93.7281 14.5819 93.6632 14.5464 93.5501 14.4811H93.5507ZM95.629 13.1787C96.8516 13.1787 97.7618 12.2255 97.7733 10.9339C97.7842 9.64693 96.851 8.64219 95.6404 8.63761C94.4103 8.63303 93.5013 9.59426 93.4938 10.9082C93.4858 12.222 94.3857 13.1781 95.6295 13.1787H95.629Z" fill="#7F56D2"/>
<path d="M179.707 10.7287C180.994 11.7512 180.802 13.2964 180.084 14.1311C179.532 14.774 178.806 15.117 177.974 15.1439C176.665 15.1862 175.354 15.1748 174.043 15.161C173.378 15.1542 172.985 14.703 172.984 13.996C172.981 12.1273 172.983 10.2581 172.983 8.38947C172.983 8.20856 172.981 8.02708 172.983 7.84617C172.992 7.09447 173.449 6.63647 174.193 6.64162C175.493 6.65021 176.797 6.60899 178.093 6.69086C179.677 6.79104 180.723 8.32993 180.237 9.76519C180.125 10.0978 179.896 10.3915 179.707 10.7287H179.707ZM175.225 11.781V13.0325C176.114 13.0325 176.982 13.0353 177.85 13.0279C177.949 13.0273 178.055 12.9792 178.146 12.9323C178.542 12.7313 178.592 12.2321 178.231 11.9739C178.098 11.8783 177.921 11.7924 177.762 11.789C176.923 11.7707 176.084 11.7804 175.225 11.7804V11.781ZM175.213 9.80584C176.112 9.80584 176.98 9.815 177.848 9.79439C177.957 9.7921 178.106 9.65585 178.161 9.54478C178.374 9.11655 178.145 8.7616 177.647 8.75129C176.958 8.73698 176.269 8.74671 175.58 8.74557C175.461 8.74557 175.341 8.74557 175.214 8.74557V9.80527L175.213 9.80584Z" fill="#7F56D2"/>
<path d="M192.421 11.7919C192.74 12.7262 193.72 13.3084 194.772 13.2283C195.251 13.1916 195.679 13.0216 196.076 12.7554C196.626 12.3873 197.258 12.4903 197.628 12.9958C197.925 13.4012 197.885 13.9221 197.499 14.2302C195.532 15.7971 192.054 15.6236 190.674 12.9913C189.567 10.8799 190.212 7.5021 193.33 6.71205C194.98 6.29412 196.639 6.83113 197.541 8.08491C198.143 8.92191 198.375 9.87455 198.333 10.8942C198.314 11.3625 197.938 11.7306 197.47 11.7804C197.356 11.7924 197.241 11.7913 197.126 11.7913C195.671 11.7919 194.216 11.7913 192.761 11.7913C192.658 11.7913 192.555 11.7913 192.42 11.7913L192.421 11.7919ZM196.128 9.88085C195.985 9.11026 195.28 8.57841 194.412 8.57841C193.433 8.57841 192.607 9.12916 192.467 9.88085H196.128Z" fill="#7F56D2"/>
<path d="M64.012 11.7938C64.2101 12.5089 64.9906 13.1106 65.7779 13.2096C66.4636 13.296 67.0844 13.1466 67.6552 12.7579C68.1881 12.3955 68.8388 12.4928 69.1885 12.9732C69.5222 13.4317 69.4676 13.9424 69.0134 14.2842C68.2036 14.8933 67.279 15.2122 66.2666 15.2214C64.464 15.2374 63.038 14.5338 62.2059 12.8947C61.3899 11.2866 61.5978 8.68568 63.4992 7.34488C65.0985 6.21705 67.507 6.35846 68.8037 7.70899C69.6525 8.59294 69.9494 9.695 69.9138 10.8887C69.8977 11.4366 69.4532 11.7909 68.8566 11.7927C67.3543 11.7967 65.8526 11.7938 64.3503 11.7938C64.2469 11.7938 64.1435 11.7938 64.0114 11.7938H64.012ZM64.0321 9.87477H67.7132C67.5254 9.10704 66.8903 8.60782 66.0851 8.58034C65.0819 8.54656 64.2854 9.04235 64.0321 9.87477Z" fill="#7F56D2"/>
<path d="M117.058 14.4909C116.671 14.6741 116.3 14.8997 115.897 15.0313C113.559 15.7968 111.121 14.3094 110.707 11.8763C110.454 10.386 110.71 9.01604 111.801 7.90424C113.03 6.65218 114.543 6.29437 116.202 6.78214C117.824 7.25903 118.805 8.40118 119.138 10.054C119.234 10.5338 119.212 11.0398 119.22 11.5345C119.232 12.3257 119.223 13.1175 119.223 13.9092C119.223 14.5791 118.943 15.0142 118.431 15.147C117.844 15.2987 117.374 15.0685 117.058 14.4909ZM114.927 13.1781C116.167 13.181 117.066 12.2278 117.063 10.9127C117.061 9.61775 116.158 8.64335 114.955 8.63705C113.716 8.63018 112.78 9.61202 112.783 10.9133C112.787 12.2232 113.688 13.1753 114.927 13.1781Z" fill="#7F56D2"/>
<path d="M147.73 15.2274C145.234 15.2405 143.41 13.456 143.398 10.9897C143.386 8.4203 145.149 6.61291 147.693 6.58429C150.167 6.55681 151.995 8.3934 152.005 10.9147C152.015 13.4343 150.251 15.2142 147.73 15.2279V15.2274ZM149.84 10.8735C149.822 10.1361 149.531 9.47028 149.063 9.09471C147.824 8.0997 145.961 8.75808 145.63 10.309C145.376 11.4935 145.86 12.6265 146.828 13.0061C148.315 13.5889 149.853 12.7124 149.84 10.8741V10.8735Z" fill="#7F56D2"/>
<path d="M162.988 10.9236C162.987 8.40574 164.78 6.59606 167.289 6.58404C169.761 6.57259 171.589 8.40345 171.591 10.8933C171.594 13.4466 169.835 15.226 167.309 15.2277C164.776 15.2294 162.991 13.4501 162.988 10.9236ZM167.311 13.1781C168.568 13.1707 169.438 12.2415 169.432 10.9093C169.426 9.5622 168.539 8.62616 167.278 8.63703C166.023 8.64791 165.141 9.60456 165.153 10.9425C165.164 12.2644 166.054 13.1856 167.311 13.1781H167.311Z" fill="#7F56D2"/>
<path d="M89.9424 10.9196C89.9407 13.4437 88.1616 15.2322 85.6572 15.2277C83.1086 15.2236 81.3387 13.4598 81.3398 10.9264C81.341 8.39884 83.1281 6.59145 85.6325 6.58401C88.118 6.57656 89.9447 8.41373 89.943 10.919L89.9424 10.9196ZM87.7832 10.8995C87.7378 10.0379 87.457 9.2845 86.6209 8.85913C85.5877 8.33358 84.3215 8.72345 83.792 9.71044C83.1856 10.8388 83.5255 12.3222 84.5477 12.8958C85.2667 13.2989 86.0213 13.3052 86.7386 12.8976C87.4955 12.4676 87.7493 11.7434 87.7838 10.8995H87.7832Z" fill="#7F56D2"/>
<path d="M107.12 14.6325C106.184 15.225 105.182 15.3601 104.129 15.1609C102.541 14.8609 101.429 13.6752 101.233 12.0665C101.179 11.6234 101.174 11.1728 101.17 10.7257C101.161 9.75303 101.164 8.77978 101.168 7.80709C101.172 7.1052 101.642 6.61801 102.293 6.62831C102.927 6.63862 103.39 7.13326 103.392 7.8111C103.397 8.99389 103.394 10.1767 103.403 11.3595C103.408 12.0402 103.619 12.6407 104.272 12.9482C104.977 13.2802 105.703 13.2751 106.38 12.8423C106.824 12.5583 107.025 12.1375 107.022 11.6068C107.014 10.2998 107.015 8.99332 107.022 7.6863C107.025 7.11837 107.419 6.70617 107.995 6.63575C108.542 6.56877 109.055 6.88994 109.187 7.40233C109.231 7.57523 109.238 7.76129 109.238 7.94106C109.242 9.91562 109.242 11.8902 109.238 13.8647C109.238 14.0445 109.233 14.2317 109.184 14.4029C108.971 15.1597 107.993 15.4357 107.394 14.9147C107.301 14.8346 107.223 14.7384 107.121 14.6325H107.12Z" fill="#7F56D2"/>
<path d="M183.87 8.96215C184.561 8.96215 185.21 8.96215 185.859 8.96215C186.742 8.96272 187.572 9.16539 188.286 9.69725C189.931 10.9247 189.818 13.4134 188.071 14.6047C187.047 15.3032 185.897 15.3902 184.712 15.2374C183.958 15.14 183.276 14.8515 182.703 14.338C181.991 13.6996 181.665 12.8804 181.649 11.9483C181.626 10.5657 181.635 9.18257 181.646 7.79997C181.652 7.13816 182.174 6.62691 182.783 6.64294C183.417 6.65955 183.864 7.15018 183.869 7.83776C183.87 8.10454 183.869 8.3719 183.869 8.63869V8.96158L183.87 8.96215ZM183.87 10.9917C183.87 11.2327 183.87 11.4869 183.87 11.7411C183.87 12.2993 184.13 12.7189 184.615 12.9668C185.362 13.3498 186.113 13.2622 186.834 12.8752C187.09 12.7378 187.23 12.5002 187.261 12.2031C187.332 11.5315 187.028 11.0758 186.3 11.0083C185.508 10.9344 184.704 10.9917 183.871 10.9917H183.87Z" fill="#7F56D2"/>
<path d="M13.0527 19.7469L16.2375 19.7469L16.2375 22.9316L19.7534 22.9316L19.7534 19.7469L22.9381 19.7469L22.9381 16.2309L19.7534 16.2309L19.7534 13.0461L16.2375 13.0461L16.2375 13.3856L16.2375 16.2309L13.0527 16.2309L13.0527 19.7469Z" fill="#9874E7"/>
<path d="M-1.27922e-06 7.0709L-1.2791e-06 7.07369C-1.20194e-06 8.81863 0.354375 10.4901 0.997095 12.0071C1.96071 14.2841 3.56519 16.216 5.58729 17.5824C5.80587 17.7303 6.03003 17.8689 6.25791 18.0028C4.62367 18.9636 3.22383 20.2751 2.16627 21.8405C0.800844 23.8599 0.000929701 26.3061 -3.12916e-07 28.9235L-3.12792e-07 28.9263L-3.12587e-07 28.931L0 36L7.07084 36C8.8167 36 10.4881 35.6456 12.0052 35.0029C14.2821 34.0393 16.214 32.4339 17.5804 30.4117C18.6175 28.8779 19.3253 27.0977 19.6071 25.1834L16.0364 25.1834C15.9145 25.775 15.7406 26.3461 15.5118 26.8884C14.8179 28.5301 13.6534 29.9327 12.1912 30.9205C10.7263 31.9083 8.97389 32.4832 7.07084 32.4841L3.51589 32.4841L3.51589 28.9291C3.51589 27.6595 3.77261 26.4587 4.23488 25.3639C4.92876 23.7222 6.09327 22.3196 7.55544 21.3317C8.52835 20.6751 9.62963 20.2044 10.8165 19.9598L10.8165 16.0383C10.2249 15.9165 9.65382 15.7426 9.11062 15.5128C7.46894 14.8189 6.0663 13.6544 5.0785 12.1922C4.0907 10.7273 3.51589 8.97489 3.51496 7.0709L3.51496 3.51592L7.07084 3.51592C8.34047 3.51592 9.54126 3.77263 10.636 4.23491C12.0749 4.84322 13.3297 5.81243 14.2831 7.02718L14.644 7.4876L14.8644 6.94533C15.242 6.01985 15.7071 5.13994 16.2503 4.31769L16.4019 4.08795L16.2066 3.88983C15.588 3.24618 14.9016 2.66763 14.1594 2.16629C12.1391 0.799919 9.69195 -4.18784e-07 7.07084 -3.05527e-07L-1.59189e-06 0L-1.2793e-06 7.06904L-1.27922e-06 7.0709Z" fill="#9874E7"/>
<path d="M23.9955 0.998035C21.7185 1.96166 19.7866 3.56707 18.4203 5.58919C17.3832 7.12298 16.6744 8.90327 16.3926 10.8175L19.9633 10.8175C20.0852 10.2259 20.2591 9.65574 20.4889 9.11254C21.1827 7.47085 22.3473 6.06821 23.8094 5.0804C25.2744 4.0926 27.0267 3.51777 28.9307 3.51685L32.4857 3.51685L32.4857 7.07182C32.4857 8.34146 32.229 9.54227 31.7667 10.637C31.0728 12.2787 29.9083 13.6814 28.4461 14.6692C27.4732 15.3259 26.3719 15.7965 25.1851 16.0402L25.1851 19.9617C25.7767 20.0835 26.3478 20.2574 26.8909 20.4872C28.5326 21.1811 29.9353 22.3456 30.9231 23.8078C31.9109 25.2727 32.4857 27.0251 32.4866 28.9282L32.4866 32.4832L28.9317 32.4832C27.662 32.4832 26.4612 32.2264 25.3665 31.7642C23.9229 31.154 22.6644 30.1792 21.7092 28.9579L21.3474 28.4957L21.126 29.0389C21.0981 29.1077 21.0721 29.1737 21.046 29.2351C20.6842 30.0908 20.2461 30.9056 19.742 31.6711L19.5932 31.8972L19.781 32.0925C20.4042 32.7417 21.0944 33.3259 21.8431 33.8319C23.8615 35.2001 26.3087 36 28.9298 36L36.0006 36L36.0006 28.9263C36.0006 27.1814 35.6453 25.5109 35.0035 23.9938C34.0399 21.7168 32.4345 19.7849 30.4124 18.4186C30.1938 18.2707 29.9697 18.1321 29.7418 17.9981C31.3751 17.0373 32.7759 15.7258 33.8334 14.1604C35.1942 12.1476 35.9932 9.71062 35.9988 7.10252L35.9988 7.0988L35.9988 0.000929939L28.9279 0.000930244C27.1811 0.00093032 25.5106 0.356243 23.9936 0.998035L23.9955 0.998035Z" fill="#9874E7"/>
<path d="M48.65 30.9004V24.6892H53.7168V30.9004H52.532V25.7325H49.8267V30.9004H48.65ZM54.844 30.9004L54.8399 29.8531H55.0623C55.2349 29.8531 55.3791 29.8167 55.495 29.7439C55.6136 29.6684 55.7107 29.5417 55.7862 29.3638C55.8617 29.1858 55.9196 28.9405 55.9601 28.6278C56.0005 28.3124 56.0301 27.9161 56.049 27.4389L56.1582 24.6892H60.4931V30.9004H59.3083V25.7325H57.2783L57.1813 27.8433C57.157 28.3555 57.1044 28.803 57.0236 29.1858C56.9454 29.5686 56.8308 29.8881 56.6798 30.1442C56.5289 30.3976 56.3348 30.5877 56.0975 30.7144C55.8603 30.8384 55.5719 30.9004 55.2322 30.9004H54.844ZM63.9131 31.0379C63.5195 31.0379 63.1637 30.9651 62.8456 30.8195C62.5274 30.6712 62.2754 30.4569 62.0894 30.1766C61.9061 29.8962 61.8144 29.5525 61.8144 29.1454C61.8144 28.7949 61.8818 28.5065 62.0166 28.28C62.1514 28.0536 62.3333 27.8743 62.5625 27.7422C62.7916 27.6101 63.0477 27.5104 63.3308 27.443C63.6139 27.3756 63.9023 27.3244 64.1962 27.2893C64.5682 27.2462 64.8701 27.2111 65.102 27.1842C65.3338 27.1545 65.5023 27.1074 65.6074 27.0427C65.7126 26.978 65.7651 26.8728 65.7651 26.7272V26.6989C65.7651 26.3458 65.6654 26.0722 65.4659 25.8781C65.2691 25.684 64.9753 25.5869 64.5844 25.5869C64.1773 25.5869 63.8565 25.6772 63.622 25.8578C63.3901 26.0358 63.2297 26.2339 63.1407 26.4523L62.0045 26.1935C62.1392 25.816 62.336 25.5114 62.5948 25.2796C62.8563 25.045 63.1569 24.8752 63.4966 24.7701C63.8363 24.6622 64.1935 24.6083 64.5682 24.6083C64.8162 24.6083 65.079 24.638 65.3567 24.6973C65.6371 24.7539 65.8986 24.859 66.1412 25.0127C66.3865 25.1664 66.5874 25.3861 66.7437 25.6718C66.9001 25.9549 66.9783 26.3229 66.9783 26.7758V30.9004H65.7975V30.0512H65.749C65.6708 30.2076 65.5535 30.3612 65.3972 30.5122C65.2408 30.6632 65.04 30.7885 64.7946 30.8883C64.5493 30.988 64.2555 31.0379 63.9131 31.0379ZM64.1759 30.0674C64.5102 30.0674 64.796 30.0013 65.0332 29.8692C65.2731 29.7371 65.4551 29.5646 65.5791 29.3516C65.7058 29.136 65.7692 28.9055 65.7692 28.6602V27.8595C65.726 27.9026 65.6425 27.9431 65.5185 27.9808C65.3972 28.0158 65.2583 28.0469 65.102 28.0738C64.9456 28.0981 64.7933 28.121 64.645 28.1426C64.4967 28.1614 64.3727 28.1776 64.273 28.1911C64.0385 28.2207 63.8241 28.2706 63.63 28.3407C63.4386 28.4108 63.285 28.5119 63.1691 28.644C63.0558 28.7734 62.9992 28.9459 62.9992 29.1616C62.9992 29.4608 63.1097 29.6873 63.3308 29.8409C63.5519 29.9919 63.8336 30.0674 64.1759 30.0674ZM67.8184 25.7325V24.6892H73.0591V25.7325H71.0331V30.9004H69.8524V25.7325H67.8184ZM76.7217 33.0153V22.6188H77.9308V33.0153H76.7217ZM76.7217 31.0257C76.2823 31.0257 75.8819 30.9503 75.5207 30.7993C75.1594 30.6456 74.8481 30.4273 74.5866 30.1442C74.3251 29.8611 74.1229 29.5228 73.98 29.1292C73.8398 28.7356 73.7697 28.3003 73.7697 27.8231C73.7697 27.3405 73.8398 26.9025 73.98 26.5089C74.1229 26.1153 74.3251 25.777 74.5866 25.4939C74.8481 25.2108 75.1594 24.9925 75.5207 24.8388C75.8819 24.6851 76.2823 24.6083 76.7217 24.6083H77.0209V31.0257H76.7217ZM76.7217 30.0067H76.8915V25.6273H76.7217C76.4305 25.6273 76.1771 25.6866 75.9615 25.8053C75.7458 25.9212 75.5665 26.0816 75.4236 26.2865C75.2808 26.4887 75.1729 26.7218 75.1001 26.986C75.03 27.2502 74.995 27.5293 74.995 27.8231C74.995 28.2167 75.0583 28.5793 75.1851 28.9109C75.3118 29.2398 75.5032 29.5053 75.7593 29.7075C76.0154 29.907 76.3362 30.0067 76.7217 30.0067ZM77.9308 31.0257H77.6275V24.6083H77.9308C78.3702 24.6083 78.7705 24.6851 79.1318 24.8388C79.493 24.9925 79.803 25.2108 80.0618 25.4939C80.3233 25.777 80.5242 26.1153 80.6643 26.5089C80.8072 26.9025 80.8787 27.3405 80.8787 27.8231C80.8787 28.3003 80.8072 28.7356 80.6643 29.1292C80.5242 29.5228 80.3233 29.8611 80.0618 30.1442C79.803 30.4273 79.493 30.6456 79.1318 30.7993C78.7705 30.9503 78.3702 31.0257 77.9308 31.0257ZM77.9308 30.0067C78.2219 30.0067 78.4753 29.9501 78.691 29.8369C78.9067 29.721 79.0859 29.5619 79.2288 29.3597C79.3717 29.1548 79.4782 28.9216 79.5483 28.6602C79.6184 28.396 79.6534 28.1169 79.6534 27.8231C79.6534 27.4322 79.59 27.071 79.4633 26.7394C79.3393 26.4051 79.1493 26.1369 78.8932 25.9347C78.6371 25.7298 78.3163 25.6273 77.9308 25.6273H77.7569V30.0067H77.9308ZM84.8385 31.0257C84.2562 31.0257 83.748 30.8923 83.314 30.6254C82.88 30.3585 82.543 29.9852 82.3031 29.5053C82.0631 29.0254 81.9432 28.4647 81.9432 27.8231C81.9432 27.1788 82.0631 26.6154 82.3031 26.1328C82.543 25.6503 82.88 25.2755 83.314 25.0086C83.748 24.7418 84.2562 24.6083 84.8385 24.6083C85.4208 24.6083 85.929 24.7418 86.363 25.0086C86.797 25.2755 87.134 25.6503 87.3739 26.1328C87.6139 26.6154 87.7338 27.1788 87.7338 27.8231C87.7338 28.4647 87.6139 29.0254 87.3739 29.5053C87.134 29.9852 86.797 30.3585 86.363 30.6254C85.929 30.8923 85.4208 31.0257 84.8385 31.0257ZM84.8425 30.0108C85.22 30.0108 85.5327 29.911 85.7807 29.7115C86.0287 29.512 86.212 29.2465 86.3306 28.9149C86.4519 28.5833 86.5126 28.218 86.5126 27.8191C86.5126 27.4228 86.4519 27.0588 86.3306 26.7272C86.212 26.393 86.0287 26.1247 85.7807 25.9225C85.5327 25.7203 85.22 25.6193 84.8425 25.6193C84.4624 25.6193 84.147 25.7203 83.8963 25.9225C83.6483 26.1247 83.4636 26.393 83.3423 26.7272C83.2237 27.0588 83.1644 27.4228 83.1644 27.8191C83.1644 28.218 83.2237 28.5833 83.3423 28.9149C83.4636 29.2465 83.6483 29.512 83.8963 29.7115C84.147 29.911 84.4624 30.0108 84.8425 30.0108ZM89.0834 33.2296V24.6892H90.2642V25.6961H90.3653C90.4354 25.5667 90.5365 25.4171 90.6686 25.2472C90.8007 25.0774 90.984 24.9291 91.2185 24.8024C91.4531 24.673 91.7631 24.6083 92.1486 24.6083C92.65 24.6083 93.0975 24.735 93.4911 24.9884C93.8847 25.2418 94.1934 25.6071 94.4171 26.0843C94.6436 26.5614 94.7568 27.1357 94.7568 27.8069C94.7568 28.4782 94.6449 29.0537 94.4212 29.5336C94.1974 30.0108 93.8901 30.3787 93.4992 30.6375C93.1083 30.8937 92.6621 31.0217 92.1607 31.0217C91.7833 31.0217 91.4746 30.9584 91.2347 30.8316C90.9975 30.7049 90.8114 30.5567 90.6767 30.3868C90.5419 30.217 90.4381 30.066 90.3653 29.9339H90.2925V33.2296H89.0834ZM90.2682 27.7948C90.2682 28.2315 90.3316 28.6143 90.4583 28.9432C90.585 29.2721 90.7683 29.5296 91.0082 29.7156C91.2482 29.8989 91.542 29.9905 91.8898 29.9905C92.251 29.9905 92.553 29.8948 92.7956 29.7034C93.0382 29.5093 93.2215 29.2465 93.3455 28.9149C93.4722 28.5833 93.5356 28.2099 93.5356 27.7948C93.5356 27.385 93.4736 27.017 93.3496 26.6908C93.2283 26.3647 93.0449 26.1072 92.7996 25.9185C92.557 25.7298 92.2537 25.6354 91.8898 25.6354C91.5393 25.6354 91.2428 25.7257 91.0002 25.9064C90.7602 26.087 90.5783 26.339 90.4543 26.6625C90.3302 26.986 90.2682 27.3635 90.2682 27.7948ZM99.5972 29.4042L101.603 24.6892H102.646L100.046 30.9004H99.1483L96.6008 24.6892H97.6319L99.5972 29.4042ZM97.2963 24.6892V30.9004H96.1115V24.6892H97.2963ZM101.93 30.9004V24.6892H103.107V30.9004H101.93ZM106.526 31.0379C106.133 31.0379 105.777 30.9651 105.459 30.8195C105.14 30.6712 104.888 30.4569 104.702 30.1766C104.519 29.8962 104.427 29.5525 104.427 29.1454C104.427 28.7949 104.495 28.5065 104.63 28.28C104.764 28.0536 104.946 27.8743 105.176 27.7422C105.405 27.6101 105.661 27.5104 105.944 27.443C106.227 27.3756 106.515 27.3244 106.809 27.2893C107.181 27.2462 107.483 27.2111 107.715 27.1842C107.947 27.1545 108.115 27.1074 108.22 27.0427C108.326 26.978 108.378 26.8728 108.378 26.7272V26.6989C108.378 26.3458 108.278 26.0722 108.079 25.8781C107.882 25.684 107.588 25.5869 107.197 25.5869C106.79 25.5869 106.47 25.6772 106.235 25.8578C106.003 26.0358 105.843 26.2339 105.754 26.4523L104.617 26.1935C104.752 25.816 104.949 25.5114 105.208 25.2796C105.469 25.045 105.77 24.8752 106.11 24.7701C106.449 24.6622 106.807 24.6083 107.181 24.6083C107.429 24.6083 107.692 24.638 107.97 24.6973C108.25 24.7539 108.512 24.859 108.754 25.0127C109 25.1664 109.2 25.3861 109.357 25.6718C109.513 25.9549 109.591 26.3229 109.591 26.7758V30.9004H108.411V30.0512H108.362C108.284 30.2076 108.167 30.3612 108.01 30.5122C107.854 30.6632 107.653 30.7885 107.408 30.8883C107.162 30.988 106.869 31.0379 106.526 31.0379ZM106.789 30.0674C107.123 30.0674 107.409 30.0013 107.646 29.8692C107.886 29.7371 108.068 29.5646 108.192 29.3516C108.319 29.136 108.382 28.9055 108.382 28.6602V27.8595C108.339 27.9026 108.256 27.9431 108.132 27.9808C108.01 28.0158 107.871 28.0469 107.715 28.0738C107.559 28.0981 107.406 28.121 107.258 28.1426C107.11 28.1614 106.986 28.1776 106.886 28.1911C106.651 28.2207 106.437 28.2706 106.243 28.3407C106.052 28.4108 105.898 28.5119 105.782 28.644C105.669 28.7734 105.612 28.9459 105.612 29.1616C105.612 29.4608 105.723 29.6873 105.944 29.8409C106.165 29.9919 106.447 30.0674 106.789 30.0674ZM113.868 25.7325V24.6892H119.108V25.7325H117.082V30.9004H115.902V25.7325H113.868ZM122.775 31.0257C122.163 31.0257 121.636 30.895 121.194 30.6335C120.754 30.3693 120.415 29.9986 120.175 29.5215C119.938 29.0416 119.819 28.4795 119.819 27.8352C119.819 27.199 119.938 26.6383 120.175 26.153C120.415 25.6678 120.749 25.289 121.178 25.0167C121.609 24.7445 122.113 24.6083 122.69 24.6083C123.04 24.6083 123.38 24.6663 123.709 24.7822C124.038 24.8981 124.333 25.0801 124.595 25.3281C124.856 25.5761 125.062 25.8983 125.213 26.2946C125.364 26.6882 125.44 27.1667 125.44 27.7301V28.1587H120.502V27.2529H124.255C124.255 26.9348 124.19 26.6531 124.061 26.4078C123.931 26.1598 123.749 25.9643 123.515 25.8214C123.283 25.6786 123.011 25.6071 122.698 25.6071C122.358 25.6071 122.062 25.6907 121.808 25.8578C121.558 26.0223 121.364 26.2379 121.226 26.5048C121.091 26.769 121.024 27.0561 121.024 27.3662V28.0738C121.024 28.489 121.097 28.8421 121.242 29.1333C121.391 29.4244 121.597 29.6468 121.861 29.8005C122.125 29.9515 122.434 30.0269 122.787 30.0269C123.016 30.0269 123.225 29.9946 123.414 29.9299C123.603 29.8625 123.766 29.7627 123.903 29.6307C124.041 29.4986 124.146 29.3355 124.219 29.1414L125.363 29.3476C125.271 29.6846 125.107 29.9798 124.87 30.2332C124.635 30.4839 124.34 30.6793 123.984 30.8195C123.631 30.957 123.228 31.0257 122.775 31.0257ZM126.292 30.9004L126.288 29.8531H126.51C126.683 29.8531 126.827 29.8167 126.943 29.7439C127.062 29.6684 127.159 29.5417 127.234 29.3638C127.31 29.1858 127.368 28.9405 127.408 28.6278C127.448 28.3124 127.478 27.9161 127.497 27.4389L127.606 24.6892H131.941V30.9004H130.756V25.7325H128.726L128.629 27.8433C128.605 28.3555 128.552 28.803 128.472 29.1858C128.393 29.5686 128.279 29.8881 128.128 30.1442C127.977 30.3976 127.783 30.5877 127.546 30.7144C127.308 30.8384 127.02 30.9004 126.68 30.9004H126.292ZM136.231 31.0257C135.619 31.0257 135.092 30.895 134.649 30.6335C134.21 30.3693 133.87 29.9986 133.63 29.5215C133.393 29.0416 133.275 28.4795 133.275 27.8352C133.275 27.199 133.393 26.6383 133.63 26.153C133.87 25.6678 134.205 25.289 134.633 25.0167C135.065 24.7445 135.569 24.6083 136.146 24.6083C136.496 24.6083 136.836 24.6663 137.165 24.7822C137.494 24.8981 137.789 25.0801 138.05 25.3281C138.312 25.5761 138.518 25.8983 138.669 26.2946C138.82 26.6882 138.895 27.1667 138.895 27.7301V28.1587H133.958V27.2529H137.711C137.711 26.9348 137.646 26.6531 137.516 26.4078C137.387 26.1598 137.205 25.9643 136.971 25.8214C136.739 25.6786 136.466 25.6071 136.154 25.6071C135.814 25.6071 135.517 25.6907 135.264 25.8578C135.013 26.0223 134.819 26.2379 134.682 26.5048C134.547 26.769 134.48 27.0561 134.48 27.3662V28.0738C134.48 28.489 134.552 28.8421 134.698 29.1333C134.846 29.4244 135.052 29.6468 135.317 29.8005C135.581 29.9515 135.889 30.0269 136.243 30.0269C136.472 30.0269 136.681 29.9946 136.869 29.9299C137.058 29.8625 137.221 29.7627 137.359 29.6307C137.496 29.4986 137.601 29.3355 137.674 29.1414L138.819 29.3476C138.727 29.6846 138.562 29.9798 138.325 30.2332C138.091 30.4839 137.795 30.6793 137.44 30.8195C137.086 30.957 136.683 31.0257 136.231 31.0257ZM143.723 29.4042L145.728 24.6892H146.772L144.171 30.9004H143.274L140.726 24.6892H141.757L143.723 29.4042ZM141.422 24.6892V30.9004H140.237V24.6892H141.422ZM146.056 30.9004V24.6892H147.233V30.9004H146.056ZM151.521 31.0257C150.909 31.0257 150.382 30.895 149.94 30.6335C149.5 30.3693 149.161 29.9986 148.921 29.5215C148.684 29.0416 148.565 28.4795 148.565 27.8352C148.565 27.199 148.684 26.6383 148.921 26.153C149.161 25.6678 149.495 25.289 149.924 25.0167C150.355 24.7445 150.859 24.6083 151.436 24.6083C151.786 24.6083 152.126 24.6663 152.455 24.7822C152.784 24.8981 153.079 25.0801 153.341 25.3281C153.602 25.5761 153.808 25.8983 153.959 26.2946C154.11 26.6882 154.186 27.1667 154.186 27.7301V28.1587H149.248V27.2529H153.001C153.001 26.9348 152.936 26.6531 152.807 26.4078C152.677 26.1598 152.495 25.9643 152.261 25.8214C152.029 25.6786 151.757 25.6071 151.444 25.6071C151.104 25.6071 150.808 25.6907 150.554 25.8578C150.304 26.0223 150.11 26.2379 149.972 26.5048C149.837 26.769 149.77 27.0561 149.77 27.3662V28.0738C149.77 28.489 149.843 28.8421 149.988 29.1333C150.137 29.4244 150.343 29.6468 150.607 29.8005C150.871 29.9515 151.18 30.0269 151.533 30.0269C151.762 30.0269 151.971 29.9946 152.16 29.9299C152.349 29.8625 152.512 29.7627 152.649 29.6307C152.787 29.4986 152.892 29.3355 152.965 29.1414L154.109 29.3476C154.017 29.6846 153.853 29.9798 153.616 30.2332C153.381 30.4839 153.086 30.6793 152.73 30.8195C152.377 30.957 151.974 31.0257 151.521 31.0257ZM154.921 32.6918V29.8531H155.426C155.556 29.7344 155.665 29.5929 155.754 29.4285C155.845 29.264 155.922 29.0686 155.984 28.8421C156.049 28.6157 156.103 28.3515 156.146 28.0495C156.189 27.7449 156.227 27.3972 156.259 27.0063L156.453 24.6892H160.675V29.8531H161.629V32.6918H160.449V30.9004H156.118V32.6918H154.921ZM156.72 29.8531H159.494V25.7244H157.537L157.408 27.0063C157.346 27.6587 157.267 28.2248 157.173 28.7046C157.079 29.1818 156.928 29.5646 156.72 29.8531ZM163.996 29.2061L166.734 24.6892H168.036V30.9004H166.851V26.3795L164.125 30.9004H162.811V24.6892H163.996V29.2061ZM174.728 24.6892V29.9097H175.638V32.902H174.445V30.9004H169.661V24.6892H170.846V29.8571H173.547V24.6892H174.728ZM178.163 29.2061L180.901 24.6892H182.203V30.9004H181.018V26.3795L178.293 30.9004H176.978V24.6892H178.163V29.2061ZM188.038 27.2731V28.3205H184.674V27.2731H188.038ZM185.013 24.6892V30.9004H183.828V24.6892H185.013ZM188.883 24.6892V30.9004H187.702V24.6892H188.883ZM191.411 26.8243H193.214C193.974 26.8243 194.559 27.013 194.969 27.3904C195.379 27.7678 195.584 28.2544 195.584 28.8502C195.584 29.2384 195.492 29.5875 195.309 29.8975C195.125 30.2076 194.857 30.4529 194.504 30.6335C194.151 30.8114 193.721 30.9004 193.214 30.9004H190.501V24.6892H191.685V29.8571H193.214C193.562 29.8571 193.848 29.7668 194.071 29.5862C194.295 29.4029 194.407 29.1697 194.407 28.8866C194.407 28.5874 194.295 28.3434 194.071 28.1547C193.848 27.9633 193.562 27.8676 193.214 27.8676H191.411V26.8243ZM196.465 30.9004V24.6892H197.674V30.9004H196.465Z" fill="#6941C6"/>
</svg>
